<svg xmlns="http://www.w3.org/2000/svg" width="63" height="61.001" viewBox="0 0 63 61.001">
  <path id="SPEECH_4" data-name="SPEECH 4" d="M574,4571h-2v5h0a3.014,3.014,0,0,1-.061.6,2.928,2.928,0,0,1-.122.393c-.02.057-.03.117-.053.169a2.927,2.927,0,0,1-.177.327c-.035.061-.061.126-.1.185a3.1,3.1,0,0,1-.333.4c-.012.013-.021.028-.033.04a2.984,2.984,0,0,1-2.084.875c-.013,0-.024,0-.037,0h0a2.986,2.986,0,0,1-2.121-.878L559.757,4571H532a3,3,0,0,1-3-3v-30a3,3,0,0,1,3-3h42a3,3,0,0,1,3,3v30A3,3,0,0,1,574,4571Zm-15.485,3,6.326,6.326.008-.008A5.968,5.968,0,0,0,569,4582v2a3,3,0,0,1-3,3H534.243l-8.121,8.123A2.992,2.992,0,0,1,524,4596h0c-.013,0-.024,0-.037,0a3,3,0,0,1-2.084-.875c-.012-.013-.021-.029-.033-.042a2.916,2.916,0,0,1-.333-.4c-.039-.057-.065-.122-.1-.183a3.094,3.094,0,0,1-.177-.325c-.023-.055-.033-.115-.053-.171a2.959,2.959,0,0,1-.122-.393,3.007,3.007,0,0,1-.061-.6h0v-6h-4a3,3,0,0,1-3-3v-34h0a3,3,0,0,1,3-3h9v21a6,6,0,0,0,6,6Z" transform="translate(-514 -4534.997)" fill="#95e1d3"/>
</svg>
