<svg xmlns="http://www.w3.org/2000/svg" width="25.6" height="25.6" viewBox="0 0 25.6 25.6">
  <path id="instagram" d="M632.7,5337.8H613.5a3.2,3.2,0,0,1-3.2-3.2v-19.2a3.2,3.2,0,0,1,3.2-3.2h19.2a3.2,3.2,0,0,1,3.2,3.2v19.2A3.2,3.2,0,0,1,632.7,5337.8Zm-9.6-17.76a4.957,4.957,0,0,0-4.5,2.88h0c-.008.018-.014.037-.022.055-.047.1-.089.213-.129.321-.019.053-.04.1-.057.156-.036.111-.067.225-.1.34-.013.054-.029.106-.041.16-.026.121-.044.244-.061.368-.007.05-.017.1-.023.15a4.96,4.96,0,1,0,9.862,0c-.005-.051-.016-.1-.023-.15-.017-.124-.035-.247-.061-.368-.012-.054-.028-.106-.041-.16-.029-.115-.059-.229-.1-.34-.017-.052-.038-.1-.057-.156-.04-.108-.081-.216-.129-.321-.008-.018-.014-.037-.022-.055h0A4.957,4.957,0,0,0,623.1,5320.04Zm9.92-3.68a1.28,1.28,0,0,0-1.28-1.28h-2.56a1.28,1.28,0,0,0-1.28,1.28v2.561a1.28,1.28,0,0,0,1.28,1.28h2.56a1.28,1.28,0,0,0,1.28-1.28Zm0,6.56h-2.36a7.84,7.84,0,1,1-15.121,0h-2.36v10.72a1.28,1.28,0,0,0,1.28,1.281h17.28a1.28,1.28,0,0,0,1.28-1.281Z" transform="translate(-610.3 -5312.2)" fill="#f38181"/>
</svg>
