<svg xmlns="http://www.w3.org/2000/svg" width="19.594" height="25.657" viewBox="0 0 19.594 25.657">
  <path id="pinterest" d="M566.051,5328.854c-.209.833-.42,1.707-.638,2.561a19.56,19.56,0,0,1-.718,2.47,12.648,12.648,0,0,1-2.044,3.521c-.575.667-.452.4-.625.365-.132-.027-.144-.157-.169-.345a19.292,19.292,0,0,1,.008-3.339,18.041,18.041,0,0,1,.588-3.471c.484-2.064.946-4.087,1.435-6.164a1.369,1.369,0,0,0,.09-.445,6.41,6.41,0,0,1-.429-1.7,5.41,5.41,0,0,1,.139-1.943,3.208,3.208,0,0,1,1.894-2.338,2.171,2.171,0,0,1,1.734.132,1.883,1.883,0,0,1,.867,1.245,4.491,4.491,0,0,1-.08,1.892c-.267,1.218-.618,2.133-.937,3.309a3.642,3.642,0,0,0-.189,1.812,2.105,2.105,0,0,0,.848,1.275,2.464,2.464,0,0,0,1.625.456,3.552,3.552,0,0,0,2.652-1.568,9.269,9.269,0,0,0,1.674-4.686,11.514,11.514,0,0,0,.07-2.014,5.48,5.48,0,0,0-1.126-3.117,5.28,5.28,0,0,0-2.512-1.71,8.336,8.336,0,0,0-3.748-.233,6.636,6.636,0,0,0-4.914,3.533,7.078,7.078,0,0,0-.837,3.41,4.427,4.427,0,0,0,.678,2.5c.133.2.328.367.458.6.185.326-.029.812-.12,1.164-.11.425-.121,1.012-.618,1.022a1.512,1.512,0,0,1-.638-.243,5.117,5.117,0,0,1-2.422-3.734,8.937,8.937,0,0,1,0-3.238,9.214,9.214,0,0,1,4.4-6.144,10.441,10.441,0,0,1,3.907-1.346c.508-.075,1.034-.1,1.6-.132a9.638,9.638,0,0,1,4.326.81,8.848,8.848,0,0,1,2.98,2.146,8.123,8.123,0,0,1,1.834,3.31,7.977,7.977,0,0,1,.4,2.287,13.723,13.723,0,0,1-.308,2.368,9.328,9.328,0,0,1-3.838,6.458,6.643,6.643,0,0,1-1.754.81,6.409,6.409,0,0,1-2.243.283,4.6,4.6,0,0,1-1.984-.577A3.285,3.285,0,0,1,566.051,5328.854Z" transform="translate(-557.899 -5312.195)" fill="#f38181"/>
</svg>
