<svg xmlns="http://www.w3.org/2000/svg" width="25.6" height="20.778" viewBox="0 0 25.6 20.778">
  <path id="twitter" d="M516.513,5314.6a5.4,5.4,0,0,1,4.151,1.647,8.494,8.494,0,0,0,2.691-.907l.653-.357a5.253,5.253,0,0,1-1.7,2.465,2.526,2.526,0,0,1-.577.409v.013a9.852,9.852,0,0,0,2.973-.8v.013a8.5,8.5,0,0,1-1.781,2.044l-.82.651a15.043,15.043,0,0,1-.243,3.373c-1.312,5.9-4.787,9.9-10.289,11.612a15.722,15.722,0,0,1-7.431.306,19.191,19.191,0,0,1-3.088-1.008,12.3,12.3,0,0,1-1.486-.767l-.461-.281a8.519,8.519,0,0,0,1.678.063c.516-.083,1.023-.061,1.5-.166a10.753,10.753,0,0,0,3.152-1.137,5.855,5.855,0,0,0,1.422-.932,4.474,4.474,0,0,1-1.563-.281,5.275,5.275,0,0,1-3.331-3.36c.515.057,2,.19,2.345-.1a3.844,3.844,0,0,1-1.717-.689,5.053,5.053,0,0,1-2.473-4.5l.538.255a5.776,5.776,0,0,0,1.1.307,1.569,1.569,0,0,0,.718.063h-.026c-.265-.307-.7-.513-.961-.843a5.365,5.365,0,0,1-1.179-4.765,6.1,6.1,0,0,1,.564-1.367l.026.012a3.2,3.2,0,0,0,.474.55,9.621,9.621,0,0,0,1.563,1.494,15.462,15.462,0,0,0,6.419,3.1,10.014,10.014,0,0,0,2.358.307,4.881,4.881,0,0,1,.026-2.466,5.179,5.179,0,0,1,2.973-3.525,6.3,6.3,0,0,1,1.166-.358Z" transform="translate(-499.1 -5314.6)" fill="#f38181"/>
</svg>
