<svg xmlns="http://www.w3.org/2000/svg" width="16.011" height="14.269" viewBox="0 0 16.011 14.269">
  <path id="SPEECH_BUBBLE_2" data-name="SPEECH BUBBLE 2" d="M437.416,9121.358a11.692,11.692,0,0,1-1.676-.244,6.371,6.371,0,0,1-5.648,2.226c2.441-1.154,2.392-3.068,1.958-3.324a5.609,5.609,0,0,1-3.069-4.76c0-3.392,3.727-6.141,8.434-6.141s7.577,2.749,7.577,6.141S442.124,9121.358,437.416,9121.358Zm-4.174-7.483a1.5,1.5,0,1,0,1.5,1.5A1.5,1.5,0,0,0,433.242,9113.875Zm3.75,0a1.5,1.5,0,1,0,1.5,1.5A1.5,1.5,0,0,0,436.992,9113.875Zm3.75,0a1.5,1.5,0,1,0,1.5,1.5A1.5,1.5,0,0,0,440.742,9113.875Z" transform="translate(-428.982 -9109.115)" fill="#95e1d3"/>
</svg>
