<svg xmlns="http://www.w3.org/2000/svg" width="16.001" height="16.001" viewBox="0 0 16.001 16.001">
  <path id="dribbble" d="M638.838,9782.4a8.02,8.02,0,0,0-4.723-5.761,7.865,7.865,0,0,0-1.5-.466,8.04,8.04,0,0,0-3.222,0,7.872,7.872,0,0,0-1.5.466,8.022,8.022,0,0,0-2.543,1.715,8.014,8.014,0,0,0-2.181,7.268,7.97,7.97,0,0,0,1.2,2.862,7.995,7.995,0,0,0,2.16,2.16,7.994,7.994,0,0,0,8.947,0,8,8,0,0,0,2.16-2.16,7.965,7.965,0,0,0,1.2-2.862,8.052,8.052,0,0,0,0-3.222Zm-1.007,1.543a15.814,15.814,0,0,0-4.759-.225c-.048-.117-.1-.234-.147-.353-.142-.334-.3-.665-.454-.991a8.789,8.789,0,0,0,3.807-2.7A6.8,6.8,0,0,1,637.83,9783.947Zm-2.318-5.06a7.443,7.443,0,0,1-3.569,2.474,34.52,34.52,0,0,0-2.554-3.985,6.818,6.818,0,0,1,6.123,1.512Zm-6.149-1.507h0a.113.113,0,0,1-.02,0Zm-1.279.455a41.039,41.039,0,0,1,2.537,3.937,25.251,25.251,0,0,1-6.308.834A6.84,6.84,0,0,1,628.085,9777.836Zm-3.917,6.179c0-.073,0-.145.006-.216a25.063,25.063,0,0,0,7.014-.973c.2.382.383.771.554,1.16-.09.025-.18.053-.269.082a10.808,10.808,0,0,0-5.557,4.509.008.008,0,0,1,0,0A6.811,6.811,0,0,1,624.168,9784.015Zm6.833,6.833a6.8,6.8,0,0,1-4.352-1.566c.09.073.153.12.153.12a9.254,9.254,0,0,1,5.362-4.269l.045-.014a28.416,28.416,0,0,1,1.46,5.188A6.8,6.8,0,0,1,631,9790.848Zm3.818-1.166a29.507,29.507,0,0,0-1.33-4.88,9.88,9.88,0,0,1,4.258.3A6.835,6.835,0,0,1,634.818,9789.682Z" transform="translate(-623 -9776.015)" fill="#95e1d3"/>
</svg>
