<svg xmlns="http://www.w3.org/2000/svg" width="16" height="13.752" viewBox="0 0 16 13.752">
  <path id="google_plus" data-name="google plus" d="M576.5,9780.717v2.439h-1v-2.439H573v-1h2.5v-2.439h1v2.439H579v1Zm-6.914-2.471a2.56,2.56,0,0,1,1.407,2.331,2.707,2.707,0,0,1-1.239,2.1c-.681.522-.81.742-.81,1.186,0,.379.729,1.024,1.111,1.29a2.848,2.848,0,0,1,1.444,2.692c0,1.5-1.444,3.169-4.116,3.169-2.344,0-4.383-1.12-4.383-2.617,0-1.521,1.866-2.987,4.209-2.987.255,0,.489-.011.732-.011a1.608,1.608,0,0,1-.574-1.15,1.714,1.714,0,0,1,.214-.785c-.127.009-.257-.012-.391-.012a3.061,3.061,0,0,1-3.214-3.058c0-1.631,1.781-3.132,3.673-3.132h4.22l-.944.982Zm-1.93,7.553c-1.62-.017-3.071.971-3.071,2.156,0,1.209,1.17,2.094,2.79,2.094,2.277,0,3.071-.822,3.071-2.032a1.819,1.819,0,0,0-.052-.428c-.178-.685-.808-1.023-1.688-1.624A3.616,3.616,0,0,0,567.656,9785.8Zm1.82-5.2a2.819,2.819,0,0,0-2.355-2.559c-1.087-.031-1.816,1.041-1.628,2.443a2.821,2.821,0,0,0,2.308,2.6C568.887,9783.108,569.663,9782,569.476,9780.6Z" transform="translate(-563 -9777.264)" fill="#95e1d3"/>
</svg>
