<svg xmlns="http://www.w3.org/2000/svg" width="16" height="16" viewBox="0 0 16 16">
  <path id="instagram" d="M517,9792.015H505a2,2,0,0,1-2-2v-12a2,2,0,0,1,2-2h12a2,2,0,0,1,2,2v12A2,2,0,0,1,517,9792.015Zm-6-11.1a3.1,3.1,0,0,0-2.811,1.8h0c-.005.012-.009.023-.014.034-.029.065-.055.133-.08.2-.012.032-.025.063-.036.1-.023.069-.042.141-.059.212-.009.033-.018.066-.026.1-.016.076-.027.153-.038.23,0,.031-.011.062-.014.094a3.1,3.1,0,1,0,6.163,0c0-.032-.01-.062-.014-.094-.011-.077-.022-.154-.038-.23-.007-.033-.017-.066-.026-.1-.018-.071-.037-.143-.06-.212-.011-.034-.024-.065-.036-.1-.025-.068-.051-.136-.081-.2,0-.011-.008-.022-.014-.034h0A3.1,3.1,0,0,0,511,9780.915Zm6.2-2.3a.8.8,0,0,0-.8-.8h-1.6a.8.8,0,0,0-.8.8v1.6a.8.8,0,0,0,.8.8h1.6a.8.8,0,0,0,.8-.8Zm0,4.1h-1.475a4.9,4.9,0,1,1-9.451,0H504.8v6.7a.8.8,0,0,0,.8.8h10.8a.8.8,0,0,0,.8-.8Z" transform="translate(-503 -9776.015)" fill="#95e1d3"/>
</svg>
