<svg xmlns="http://www.w3.org/2000/svg" width="12.246" height="16.036" viewBox="0 0 12.246 16.036">
  <path id="pinterest" d="M539.844,9786.424c-.131.521-.262,1.066-.4,1.6a12.228,12.228,0,0,1-.448,1.543,7.906,7.906,0,0,1-1.277,2.2c-.359.417-.283.25-.391.228-.083-.017-.09-.1-.106-.215a12.043,12.043,0,0,1,0-2.087,11.278,11.278,0,0,1,.368-2.17c.3-1.29.592-2.554.9-3.852.02-.087.075-.229.056-.278a4.014,4.014,0,0,1-.268-1.062,3.383,3.383,0,0,1,.087-1.215,2,2,0,0,1,1.184-1.461,1.352,1.352,0,0,1,1.084.082,1.179,1.179,0,0,1,.542.777,2.806,2.806,0,0,1-.05,1.183c-.167.762-.386,1.334-.586,2.068a2.276,2.276,0,0,0-.118,1.133,1.315,1.315,0,0,0,.53.8,1.546,1.546,0,0,0,1.015.285,2.221,2.221,0,0,0,1.657-.98,5.8,5.8,0,0,0,1.047-2.93,7.2,7.2,0,0,0,.044-1.259,3.424,3.424,0,0,0-.7-1.947,3.3,3.3,0,0,0-1.57-1.069,5.213,5.213,0,0,0-2.343-.146,4.147,4.147,0,0,0-3.071,2.208,4.422,4.422,0,0,0-.523,2.131,2.765,2.765,0,0,0,.424,1.563c.083.126.205.229.287.374.115.2-.018.507-.075.727-.069.266-.076.633-.386.64a.942.942,0,0,1-.4-.152,3.2,3.2,0,0,1-1.514-2.334,5.587,5.587,0,0,1,0-2.024,5.755,5.755,0,0,1,2.747-3.839,6.514,6.514,0,0,1,2.442-.841c.318-.047.646-.066,1-.083a6.035,6.035,0,0,1,2.7.506,5.534,5.534,0,0,1,1.863,1.341,5.075,5.075,0,0,1,1.146,2.069,4.97,4.97,0,0,1,.248,1.429,8.587,8.587,0,0,1-.192,1.48,5.832,5.832,0,0,1-2.4,4.036,4.163,4.163,0,0,1-1.1.506,4,4,0,0,1-1.4.176,2.876,2.876,0,0,1-1.24-.359A2.059,2.059,0,0,1,539.844,9786.424Z" transform="translate(-534.749 -9776.012)" fill="#95e1d3"/>
</svg>
