<svg xmlns="http://www.w3.org/2000/svg" width="10.002" height="16.01" viewBox="0 0 10.002 16.01">
  <path id="tumblr" d="M666.009,9791.146a9.578,9.578,0,0,1-1.849.678,7.808,7.808,0,0,1-1.79.194,4.868,4.868,0,0,1-1.717-.275,4.17,4.17,0,0,1-1.431-.791,2.873,2.873,0,0,1-.823-1.092,4.761,4.761,0,0,1-.229-1.677v-5.614h-2.164V9780.3a5.613,5.613,0,0,0,1.8-.878,4.372,4.372,0,0,0,1.075-1.376,6.2,6.2,0,0,0,.558-2.04H661.7v3.7h3.682v2.856H661.7v4.105a7.018,7.018,0,0,0,.086,1.727,1.474,1.474,0,0,0,.607.691,2.3,2.3,0,0,0,1.208.319,4.34,4.34,0,0,0,2.406-.791Z" transform="translate(-656.007 -9776.008)" fill="#95e1d3"/>
</svg>
