<svg xmlns="http://www.w3.org/2000/svg" width="16" height="12.987" viewBox="0 0 16 12.987">
  <path id="twitter" d="M483.883,9777.516a3.375,3.375,0,0,1,2.595,1.03,5.325,5.325,0,0,0,1.682-.567l.408-.224a3.28,3.28,0,0,1-1.065,1.541,1.562,1.562,0,0,1-.36.256v.008a6.156,6.156,0,0,0,1.858-.5v.008a5.286,5.286,0,0,1-1.113,1.277l-.513.407a9.4,9.4,0,0,1-.152,2.107,9.176,9.176,0,0,1-6.43,7.258,9.815,9.815,0,0,1-4.645.191,11.972,11.972,0,0,1-1.93-.63,7.792,7.792,0,0,1-.929-.479l-.288-.176a5.352,5.352,0,0,0,1.049.04c.323-.052.639-.038.937-.1a6.706,6.706,0,0,0,1.97-.711,3.66,3.66,0,0,0,.889-.582,2.8,2.8,0,0,1-.977-.176,3.3,3.3,0,0,1-2.082-2.1c.322.035,1.249.119,1.466-.063a2.4,2.4,0,0,1-1.073-.432,3.158,3.158,0,0,1-1.546-2.811l.336.16a3.637,3.637,0,0,0,.689.192,1,1,0,0,0,.448.039h-.016c-.165-.192-.435-.32-.6-.526a3.355,3.355,0,0,1-.737-2.979,3.84,3.84,0,0,1,.352-.854l.016.009a2.019,2.019,0,0,0,.3.343,6,6,0,0,0,.977.934,9.671,9.671,0,0,0,4.012,1.941,6.327,6.327,0,0,0,1.473.19,3.047,3.047,0,0,1,.016-1.54,3.235,3.235,0,0,1,1.858-2.2,3.957,3.957,0,0,1,.729-.224Z" transform="translate(-473 -9777.515)" fill="#95e1d3"/>
</svg>
