<?xml version="1.0" standalone="no"?>
<!DOCTYPE svg PUBLIC "-//W3C//DTD SVG 20010904//EN"
 "http://www.w3.org/TR/2001/REC-SVG-20010904/DTD/svg10.dtd">
<svg version="1.0" xmlns="http://www.w3.org/2000/svg"
 width="276.000000pt" height="276.000000pt" viewBox="0 0 276.000000 276.000000"
 preserveAspectRatio="xMidYMid meet">
<metadata>
Created by potrace 1.14, written by Peter Selinger 2001-2017
</metadata>
<g transform="translate(0.000000,276.000000) scale(0.100000,-0.100000)"
fill="#000000" stroke="none">
<path d="M1119 2576 c-2 -2 -29 -7 -59 -10 -182 -22 -486 -127 -477 -166 4
-19 2 -19 118 29 414 173 881 147 1307 -74 201 -104 358 -225 403 -309 21 -40
22 -47 9 -60 -15 -15 -51 -24 -102 -25 -19 -1 -26 -6 -24 -18 2 -13 19 -21 57
-29 125 -25 170 -56 174 -118 2 -24 18 -55 54 -103 122 -160 166 -321 130
-471 -15 -60 -81 -186 -124 -238 l-34 -39 14 40 c19 55 12 154 -14 207 -46 95
-165 214 -284 283 -50 29 -77 67 -77 109 0 19 -4 23 -20 19 -31 -8 -68 5 -81
28 -9 18 -7 27 10 50 11 15 17 30 13 33 -4 2 -34 -4 -66 -15 -32 -11 -85 -21
-119 -21 -57 -2 -227 10 -270 18 -34 6 -198 7 -204 0 -14 -14 1 -18 112 -30
178 -19 371 -61 483 -105 284 -112 492 -306 506 -472 5 -63 -10 -138 -35 -172
-23 -31 -19 -60 6 -51 8 4 45 43 81 88 62 77 114 170 136 239 17 56 21 166 8
230 -15 80 -74 205 -136 287 -32 44 -49 76 -50 99 -3 40 -43 86 -97 111 -31
14 -35 19 -23 29 69 58 -23 190 -229 326 -313 208 -608 302 -951 304 -78 0
-143 -1 -145 -3z"/>
<path d="M945 2369 c-326 -41 -541 -134 -700 -299 l-50 -52 88 57 c185 120
460 225 732 280 17 3 37 8 45 10 8 2 23 4 33 4 9 1 17 5 17 10 0 12 0 12 -165
-10z"/>
<path d="M1534 2315 c11 -8 26 -15 34 -15 28 0 157 -69 186 -99 l30 -31 -25
-1 c-103 -3 -335 11 -419 26 -14 2 -31 1 -39 -4 -20 -13 2 -23 62 -27 254 -17
356 -34 449 -71 37 -15 37 -15 23 -43 -8 -16 -15 -40 -15 -54 0 -59 90 -107
135 -72 20 16 20 16 -2 22 -29 8 -38 34 -18 53 15 15 17 14 33 -5 9 -12 28
-27 41 -34 l23 -12 -33 -34 c-36 -37 -88 -59 -125 -51 -49 9 -22 -11 36 -27
33 -9 60 -21 60 -26 0 -5 -19 -15 -41 -22 -58 -17 -129 3 -299 85 -158 76
-209 94 -279 101 -28 3 -55 7 -60 11 -5 3 -19 1 -32 -3 -19 -7 -11 -10 39 -16
34 -4 63 -7 64 -6 13 4 143 -52 233 -100 208 -110 313 -134 409 -92 37 17 52
18 84 10 34 -8 46 -6 88 15 57 28 90 37 158 43 27 2 52 7 55 9 15 15 -69 52
-174 76 -52 12 -63 19 -92 59 -71 96 -91 116 -129 128 -45 14 -59 7 -18 -8 45
-17 94 -59 94 -80 0 -16 -4 -17 -30 -10 -37 10 -136 81 -203 144 -85 81 -171
132 -267 160 -47 13 -52 13 -36 1z"/>
<path d="M909 2186 c-3 -3 -20 -8 -39 -11 -19 -3 -75 -17 -125 -31 -360 -102
-593 -289 -701 -563 -36 -94 -38 -123 -3 -56 132 252 411 469 807 625 45 18
82 34 82 36 0 5 -16 5 -21 0z"/>
<path d="M1222 2110 c-18 -4 -35 -9 -37 -11 -2 -2 45 -4 103 -4 141 0 215 -24
354 -115 56 -37 104 -66 106 -64 2 1 -2 12 -8 25 -8 14 -10 43 -6 80 l6 58
-43 -1 c-44 -1 -177 11 -186 16 -25 15 -241 26 -289 16z"/>
<path d="M753 1959 c-35 -13 -28 -16 35 -17 74 -1 174 -25 287 -68 81 -32 185
-88 185 -101 0 -3 -21 -2 -47 1 -173 21 -412 26 -538 13 -79 -9 -158 -28 -230
-56 -58 -23 -56 -25 16 -11 30 6 70 13 89 16 19 2 51 7 70 10 70 12 348 11
454 -2 59 -7 144 -22 188 -34 44 -11 84 -22 90 -23 6 -1 12 6 13 16 5 28 10
30 73 34 78 6 87 9 72 28 -7 8 -15 13 -19 10 -16 -10 -165 30 -296 80 -150 56
-218 77 -305 94 -91 17 -114 19 -137 10z"/>
<path d="M2275 1771 c-51 -23 -115 -82 -96 -89 7 -2 16 0 20 5 3 6 42 27 85
47 58 28 75 40 65 47 -20 12 -28 11 -74 -10z"/>
<path d="M695 1665 c-246 -38 -425 -138 -556 -310 -64 -84 -93 -159 -93 -240
0 -76 24 -170 52 -204 17 -22 17 -20 15 63 -2 95 12 156 54 232 53 97 198 217
343 286 158 74 298 101 535 102 382 2 577 -39 1010 -213 120 -48 99 -27 -40
40 -130 62 -386 145 -515 165 -19 3 -38 8 -41 10 -7 4 -170 40 -224 49 -212
35 -398 42 -540 20z"/>
<path d="M1581 1626 c2 -2 72 -27 154 -54 245 -81 444 -191 640 -356 50 -41
93 -76 98 -76 13 0 7 40 -10 68 -10 15 -38 46 -63 70 -146 137 -398 259 -687
332 -73 18 -143 27 -132 16z"/>
<path d="M992 1508 c-317 -27 -571 -156 -698 -355 -58 -89 -77 -148 -78 -243
-1 -76 3 -92 30 -151 21 -43 55 -91 98 -135 l67 -69 -24 50 c-104 213 -58 389
155 591 151 143 269 208 436 240 95 18 298 23 452 12 85 -7 401 -56 476 -74
16 -4 27 -4 24 -1 -12 13 -345 94 -466 113 -20 3 -46 8 -58 10 -72 14 -308 22
-414 12z"/>
<path d="M1448 1376 c-1 -2 -59 -6 -128 -9 -216 -9 -419 -63 -546 -146 -199
-129 -309 -367 -273 -590 21 -130 121 -254 266 -329 44 -23 84 -42 88 -42 4 0
-11 20 -33 44 -165 179 -157 483 19 707 97 123 212 204 363 254 152 51 316 73
560 74 49 1 87 3 85 5 -6 6 -118 15 -254 22 -66 3 -125 7 -132 9 -6 2 -13 2
-15 1z"/>
<path d="M1730 1245 c-90 -58 -172 -164 -211 -276 -20 -55 -23 -85 -24 -204 0
-137 1 -142 31 -205 34 -71 87 -130 140 -155 37 -18 111 -21 159 -7 28 8 26 9
-26 14 -125 13 -187 82 -215 237 -16 93 -11 264 11 345 27 103 91 204 157 250
35 25 16 26 -22 1z"/>
<path d="M1535 1239 c-152 -81 -254 -192 -301 -328 -42 -121 -52 -297 -22
-396 60 -203 184 -335 312 -335 28 0 26 2 -21 25 -99 50 -171 151 -210 295
-26 100 -24 282 5 385 47 164 96 237 215 320 58 41 75 55 64 55 -1 0 -20 -10
-42 -21z"/>
<path d="M1210 1119 c-245 -148 -364 -490 -251 -722 37 -76 120 -147 200 -172
19 -6 12 5 -30 47 -201 203 -170 581 67 814 30 30 53 54 52 54 -2 0 -19 -10
-38 -21z"/>
</g>
</svg>
